<svg xmlns="http://www.w3.org/2000/svg" viewBox="0 0 24 24" fill="none" stroke="currentColor" stroke-width="2" stroke-linecap="round" stroke-linejoin="round">
  <!-- Pigeon body -->
  <path d="M12 8c-2.5 0-4.5 1.5-5 3.5-.3 1.2-.2 2.5.5 3.5.7 1 2 1.5 3.5 1.5 1.2 0 2.3-.3 3-.8"/>

  <!-- Pigeon head -->
  <circle cx="13" cy="7" r="2"/>

  <!-- Beak -->
  <path d="M14.5 6.5l2-1"/>

  <!-- Wing (folded) -->
  <path d="M8 11c-1.5.5-2.5 1.5-3 2.5-.3.7-.3 1.5 0 2.2"/>

  <!-- Tail feathers -->
  <path d="M7.5 13.5l-2 2"/>
  <path d="M7 12.5l-2.5 1"/>
  <path d="M7 14.5l-1.5 2.5"/>

  <!-- Leg -->
  <path d="M11 16.5v2"/>
  <path d="M13 16.5v2"/>

  <!-- Message scroll (optional detail) -->
  <path d="M10 10l1-2h2l1 2" stroke-width="1.5"/>

  <!-- Eye -->
  <circle cx="13.5" cy="6.8" r="0.4" fill="currentColor"/>
</svg>
